<svg width="181" height="58" viewBox="0 0 181 58" fill="none" xmlns="http://www.w3.org/2000/svg">
<path d="M23.2119 57H13.9951V12.4775L0.398438 17.124V9.31641L22.0312 1.35645H23.2119V57ZM78.627 33.6533C78.627 41.626 77.1289 47.6436 74.1328 51.7061C71.1621 55.7432 66.6299 57.7617 60.5361 57.7617C54.5439 57.7617 50.0244 55.7939 46.9775 51.8584C43.9561 47.8975 42.4072 42.0449 42.3311 34.3008V24.7031C42.3311 16.7305 43.8164 10.751 46.7871 6.76465C49.7832 2.77832 54.3408 0.785156 60.46 0.785156C66.5283 0.785156 71.0479 2.72754 74.0186 6.6123C77.0146 10.4971 78.5508 16.3115 78.627 24.0557V33.6533ZM69.3721 23.2939C69.3721 18.0889 68.6611 14.2803 67.2393 11.8682C65.8174 9.43066 63.5576 8.21191 60.46 8.21191C57.4385 8.21191 55.2168 9.36719 53.7949 11.6777C52.373 13.9629 51.624 17.543 51.5479 22.418V34.9863C51.5479 40.166 52.2715 44.0254 53.7188 46.5645C55.166 49.1035 57.4385 50.373 60.5361 50.373C63.5068 50.373 65.7031 49.2051 67.125 46.8691C68.5469 44.5078 69.2959 40.8262 69.3721 35.8242V23.2939ZM122.959 33.6533C122.959 41.626 121.461 47.6436 118.465 51.7061C115.494 55.7432 110.962 57.7617 104.868 57.7617C98.876 57.7617 94.3564 55.7939 91.3096 51.8584C88.2881 47.8975 86.7393 42.0449 86.6631 34.3008V24.7031C86.6631 16.7305 88.1484 10.751 91.1191 6.76465C94.1152 2.77832 98.6729 0.785156 104.792 0.785156C110.86 0.785156 115.38 2.72754 118.351 6.6123C121.347 10.4971 122.883 16.3115 122.959 24.0557V33.6533ZM113.704 23.2939C113.704 18.0889 112.993 14.2803 111.571 11.8682C110.149 9.43066 107.89 8.21191 104.792 8.21191C101.771 8.21191 99.5488 9.36719 98.127 11.6777C96.7051 13.9629 95.9561 17.543 95.8799 22.418V34.9863C95.8799 40.166 96.6035 44.0254 98.0508 46.5645C99.498 49.1035 101.771 50.373 104.868 50.373C107.839 50.373 110.035 49.2051 111.457 46.8691C112.879 44.5078 113.628 40.8262 113.704 35.8242V23.2939ZM130.767 12.2109C130.767 8.85938 131.846 6.11719 134.004 3.98438C136.162 1.82617 138.993 0.74707 142.497 0.74707C146.052 0.74707 148.896 1.82617 151.028 3.98438C153.187 6.11719 154.266 8.92285 154.266 12.4014V15.1436C154.266 18.4697 153.187 21.1992 151.028 23.332C148.896 25.4648 146.077 26.5312 142.573 26.5312C139.146 26.5312 136.314 25.4902 134.08 23.4082C131.871 21.3008 130.767 18.4697 130.767 14.915V12.2109ZM137.241 15.1436C137.241 16.8955 137.724 18.3174 138.688 19.4092C139.679 20.4756 140.974 21.0088 142.573 21.0088C144.147 21.0088 145.417 20.4756 146.382 19.4092C147.347 18.3174 147.829 16.8447 147.829 14.9912V12.2109C147.829 10.459 147.334 9.03711 146.344 7.94531C145.379 6.85352 144.097 6.30762 142.497 6.30762C140.897 6.30762 139.615 6.86621 138.65 7.9834C137.711 9.0752 137.241 10.5225 137.241 12.3252V15.1436ZM157.427 43.4033C157.427 40.001 158.531 37.2461 160.74 35.1387C162.949 33.0312 165.768 31.9775 169.195 31.9775C172.648 31.9775 175.467 33.0312 177.65 35.1387C179.859 37.2461 180.964 40.0898 180.964 43.6699V46.374C180.964 49.6748 179.897 52.4043 177.765 54.5625C175.657 56.6953 172.826 57.7617 169.271 57.7617C165.717 57.7617 162.848 56.708 160.664 54.6006C158.506 52.4678 157.427 49.6621 157.427 46.1836V43.4033ZM163.901 46.374C163.901 48.1006 164.396 49.5225 165.387 50.6396C166.402 51.7314 167.697 52.2773 169.271 52.2773C170.896 52.2773 172.166 51.7568 173.08 50.7158C174.02 49.6494 174.489 48.1641 174.489 46.2598V43.4033C174.489 41.626 173.994 40.2041 173.004 39.1377C172.014 38.0713 170.744 37.5381 169.195 37.5381C167.621 37.5381 166.339 38.0713 165.349 39.1377C164.384 40.2041 163.901 41.6768 163.901 43.5557V46.374ZM144.478 52.8486L139.717 50.1064L166.796 6.76465L171.557 9.50684L144.478 52.8486Z" fill="url(#paint0_linear)"/>
<defs>
<linearGradient id="paint0_linear" x1="89.5" y1="-24" x2="89.5" y2="85" gradientUnits="userSpaceOnUse">
<stop stop-color="#30ACB0"/>
<stop offset="1" stop-color="#92E5E8"/>
</linearGradient>
</defs>
</svg>
