<svg width="160" height="58" viewBox="0 0 160 58" fill="none" xmlns="http://www.w3.org/2000/svg">
<path d="M27.3926 33.8057C24.2949 37.0811 20.6768 38.7188 16.5381 38.7188C11.6631 38.7188 7.77832 37.0176 4.88379 33.6152C1.98926 30.1875 0.541992 25.6934 0.541992 20.1328C0.541992 16.4766 1.27832 13.1631 2.75098 10.1924C4.22363 7.22168 6.31836 4.91113 9.03516 3.26074C11.752 1.61035 14.9004 0.785156 18.4805 0.785156C24.0664 0.785156 28.4971 2.86719 31.7725 7.03125C35.0479 11.1953 36.6855 16.7686 36.6855 23.751V26.3408C36.6855 36.3447 34.4258 43.9746 29.9062 49.2305C25.3867 54.4863 18.6455 57.1523 9.68262 57.2285H8.57812V49.5732H9.91113C15.3701 49.4971 19.5596 48.1895 22.4795 45.6504C25.3994 43.0859 27.0371 39.1377 27.3926 33.8057ZM18.4805 31.4824C20.334 31.4824 22.0732 30.9492 23.6982 29.8828C25.3232 28.8164 26.5801 27.3438 27.4688 25.4648V21.8467C27.4688 17.7588 26.6309 14.4707 24.9551 11.9824C23.2793 9.49414 21.1084 8.25 18.4424 8.25C15.7764 8.25 13.6436 9.35449 12.0439 11.5635C10.4697 13.7471 9.68262 16.5146 9.68262 19.8662C9.68262 23.3447 10.4824 26.1504 12.082 28.2832C13.6816 30.416 15.8145 31.4824 18.4805 31.4824ZM56.1855 25.0459H61.8223C64.666 25.0205 66.9131 24.2842 68.5635 22.8369C70.2393 21.3896 71.0771 19.2949 71.0771 16.5527C71.0771 13.9121 70.3789 11.8682 68.9824 10.4209C67.6113 8.94824 65.5039 8.21191 62.6602 8.21191C60.1719 8.21191 58.1279 8.93555 56.5283 10.3828C54.9287 11.8047 54.1289 13.6709 54.1289 15.9814H44.874C44.874 13.1377 45.623 10.5479 47.1211 8.21191C48.6445 5.87598 50.752 4.06055 53.4434 2.76562C56.1602 1.44531 59.1943 0.785156 62.5459 0.785156C68.0811 0.785156 72.4229 2.18164 75.5713 4.97461C78.7451 7.74219 80.332 11.6016 80.332 16.5527C80.332 19.041 79.5322 21.3896 77.9326 23.5986C76.3584 25.7822 74.3145 27.4326 71.8008 28.5498C74.8477 29.5908 77.1582 31.2285 78.7324 33.4629C80.332 35.6973 81.1318 38.3633 81.1318 41.4609C81.1318 46.4375 79.418 50.3984 75.9902 53.3438C72.5879 56.2891 68.1064 57.7617 62.5459 57.7617C57.2139 57.7617 52.8467 56.3398 49.4443 53.4961C46.042 50.6523 44.3408 46.8691 44.3408 42.1465H53.5957C53.5957 44.584 54.4082 46.5645 56.0332 48.0879C57.6836 49.6113 59.8926 50.373 62.6602 50.373C65.5293 50.373 67.7891 49.6113 69.4395 48.0879C71.0898 46.5645 71.915 44.3555 71.915 41.4609C71.915 38.541 71.0518 36.2939 69.3252 34.7197C67.5986 33.1455 65.0342 32.3584 61.6318 32.3584H56.1855V25.0459ZM121.122 37.2334H128.016V44.6602H121.122V57H111.867V44.6602H87.9111L87.6445 39.0234L111.562 1.54688H121.122V37.2334ZM97.3564 37.2334H111.867V14.0771L111.182 15.2959L97.3564 37.2334ZM159.208 57H149.991V12.4775L136.395 17.124V9.31641L158.027 1.35645H159.208V57Z" fill="url(#paint0_linear)"/>
<defs>
<linearGradient id="paint0_linear" x1="86" y1="-24" x2="86" y2="85" gradientUnits="userSpaceOnUse">
<stop stop-color="#30ACB0"/>
<stop offset="1" stop-color="#92E5E8"/>
</linearGradient>
</defs>
</svg>
