<svg width="13" height="13" viewBox="0 0 13 13" fill="none" xmlns="http://www.w3.org/2000/svg">
<g clip-path="url(#clip0)">
<path d="M12.6589 10.0302L10.0277 8.27542C9.69376 8.05453 9.24616 8.12721 8.9993 8.44244L8.23284 9.42791C8.13434 9.55779 7.95529 9.59546 7.81279 9.51631L7.667 9.43593C7.18368 9.17249 6.58232 8.84452 5.37068 7.63245C4.15904 6.42038 3.83041 5.81856 3.56697 5.33613L3.48702 5.19034C3.40678 5.04787 3.44374 4.86805 3.57367 4.76876L4.55848 4.00254C4.87358 3.75565 4.94636 3.30818 4.72573 2.97417L2.97099 0.342919C2.74486 0.00278581 2.2912 -0.0993201 1.94114 0.111112L0.84085 0.772058C0.495132 0.975306 0.241492 1.30447 0.133116 1.69058C-0.263097 3.13423 0.0349698 5.62575 3.7052 9.29641C6.62479 12.2158 8.79828 13.0009 10.2922 13.0009C10.636 13.0023 10.9785 12.9576 11.3104 12.8679C11.6966 12.7596 12.0258 12.5059 12.2289 12.1601L12.8905 11.0605C13.1013 10.7104 12.9992 10.2564 12.6589 10.0302ZM12.5172 10.8382L11.8571 11.9385C11.7113 12.1881 11.4745 12.3716 11.1964 12.4506C9.86367 12.8165 7.53529 12.5135 4.01172 8.98989C0.488151 5.46632 0.185108 3.13814 0.551009 1.8052C0.630114 1.52676 0.813864 1.28967 1.06377 1.1436L2.16406 0.483511C2.31595 0.392119 2.51285 0.436419 2.61097 0.584018L3.56417 2.0151L4.36422 3.21504C4.46003 3.35992 4.42855 3.5541 4.29186 3.66131L3.30683 4.42754C3.00706 4.65676 2.92146 5.0715 3.10602 5.40067L3.18424 5.54278C3.4611 6.05057 3.80532 6.68227 5.06202 7.93877C6.31872 9.19524 6.95022 9.53949 7.45778 9.81633L7.6001 9.89475C7.92924 10.0793 8.34401 9.99371 8.57323 9.69394L9.33946 8.7089C9.44669 8.5723 9.6408 8.54084 9.78573 8.63655L12.4167 10.3913C12.5645 10.4893 12.6088 10.6863 12.5172 10.8382Z" fill="#30ACB0"/>
<path d="M7.36628 2.16778C9.39929 2.17004 11.0468 3.81757 11.0491 5.85057C11.0491 5.97022 11.1461 6.0672 11.2657 6.0672C11.3854 6.0672 11.4823 5.97022 11.4823 5.85057C11.4798 3.57838 9.63848 1.73702 7.36628 1.73453C7.24664 1.73453 7.14966 1.83151 7.14966 1.95115C7.14966 2.0708 7.24664 2.16778 7.36628 2.16778Z" fill="#30ACB0"/>
<path d="M7.36628 3.46759C8.68173 3.46914 9.74772 4.53514 9.74927 5.85058C9.74927 5.97023 9.84628 6.06721 9.9659 6.06721C10.0855 6.06721 10.1825 5.97023 10.1825 5.85058C10.1807 4.29594 8.9209 3.03612 7.36628 3.03434C7.24664 3.03434 7.14966 3.13132 7.14966 3.25097C7.14966 3.37062 7.24664 3.46759 7.36628 3.46759Z" fill="#30ACB0"/>
<path d="M7.36628 4.7674C7.9642 4.76811 8.44873 5.25264 8.44947 5.85058C8.44947 5.97023 8.54647 6.06721 8.66609 6.06721C8.78571 6.06721 8.88272 5.97023 8.88272 5.85058C8.88175 5.01348 8.20339 4.33509 7.36628 4.33415C7.24664 4.33415 7.14966 4.43113 7.14966 4.55077C7.14966 4.67042 7.24664 4.7674 7.36628 4.7674Z" fill="#30ACB0"/>
</g>
<defs>
<clipPath id="clip0">
<rect width="13" height="13" fill="white"/>
</clipPath>
</defs>
</svg>
