<svg width="13" height="13" viewBox="0 0 13 13" fill="none" xmlns="http://www.w3.org/2000/svg">
<g clip-path="url(#clip0)">
<path d="M12.6589 10.0301L10.0277 8.27531C9.69376 8.05442 9.24616 8.1271 8.9993 8.44233L8.23284 9.4278C8.13434 9.55768 7.95529 9.59535 7.81279 9.5162L7.667 9.43582C7.18368 9.17238 6.58232 8.84441 5.37068 7.63234C4.15904 6.42027 3.83041 5.81845 3.56697 5.33602L3.48702 5.19023C3.40678 5.04775 3.44374 4.86794 3.57367 4.76865L4.55848 4.00243C4.87358 3.75554 4.94636 3.30807 4.72573 2.97405L2.97099 0.342808C2.74486 0.00267519 2.2912 -0.0994308 1.94114 0.111001L0.84085 0.771948C0.495132 0.975195 0.241492 1.30436 0.133116 1.69047C-0.263097 3.13412 0.0349698 5.62564 3.7052 9.2963C6.62479 12.2157 8.79828 13.0007 10.2922 13.0007C10.636 13.0022 10.9785 12.9575 11.3104 12.8677C11.6966 12.7595 12.0258 12.5058 12.2289 12.16L12.8905 11.0604C13.1013 10.7102 12.9992 10.2563 12.6589 10.0301ZM12.5172 10.8381L11.8571 11.9384C11.7113 12.188 11.4745 12.3715 11.1964 12.4505C9.86367 12.8164 7.53529 12.5133 4.01172 8.98978C0.488151 5.46621 0.185108 3.13803 0.551009 1.80509C0.630114 1.52665 0.813864 1.28956 1.06377 1.14348L2.16406 0.483401C2.31595 0.392008 2.51285 0.436308 2.61097 0.583907L3.56417 2.01499L4.36422 3.21493C4.46003 3.35981 4.42855 3.55399 4.29186 3.6612L3.30683 4.42743C3.00706 4.65664 2.92146 5.07139 3.10602 5.40056L3.18424 5.54267C3.4611 6.05046 3.80532 6.68216 5.06202 7.93866C6.31872 9.19513 6.95022 9.53938 7.45778 9.81622L7.6001 9.89464C7.92924 10.0792 8.34401 9.9936 8.57323 9.69383L9.33946 8.70879C9.44669 8.57219 9.6408 8.54073 9.78573 8.63644L12.4167 10.3912C12.5645 10.4892 12.6088 10.6862 12.5172 10.8381Z" fill="white"/>
<path d="M7.36628 2.16763C9.39929 2.16989 11.0468 3.81742 11.0491 5.85042C11.0491 5.97007 11.1461 6.06705 11.2657 6.06705C11.3854 6.06705 11.4823 5.97007 11.4823 5.85042C11.4798 3.57822 9.63848 1.73686 7.36628 1.73438C7.24664 1.73438 7.14966 1.83135 7.14966 1.951C7.14966 2.07065 7.24664 2.16763 7.36628 2.16763Z" fill="white"/>
<path d="M7.36628 3.46743C8.68173 3.46898 9.74772 4.53497 9.74927 5.85042C9.74927 5.97007 9.84628 6.06705 9.9659 6.06705C10.0855 6.06705 10.1825 5.97007 10.1825 5.85042C10.1807 4.29578 8.9209 3.03596 7.36628 3.03418C7.24664 3.03418 7.14966 3.13116 7.14966 3.25081C7.14966 3.37045 7.24664 3.46743 7.36628 3.46743Z" fill="white"/>
<path d="M7.36628 4.76724C7.9642 4.76795 8.44873 5.25248 8.44947 5.85042C8.44947 5.97007 8.54647 6.06704 8.66609 6.06704C8.78571 6.06704 8.88272 5.97007 8.88272 5.85042C8.88175 5.01331 8.20339 4.33492 7.36628 4.33398C7.24664 4.33398 7.14966 4.43096 7.14966 4.55061C7.14966 4.67026 7.24664 4.76724 7.36628 4.76724Z" fill="white"/>
</g>
<defs>
<clipPath id="clip0">
<rect width="13" height="13" fill="white"/>
</clipPath>
</defs>
</svg>
