<svg width="83" height="83" viewBox="0 0 83 83" fill="none" xmlns="http://www.w3.org/2000/svg">
<circle cx="41.5" cy="41.5" r="40.5" stroke="#30ACB0" stroke-width="2"/>
<path d="M37.4454 40.1798L35.731 40.8662C35.1452 41.0988 34.4818 40.8125 34.2491 40.2268C34.1299 39.9264 34.1435 39.5895 34.2867 39.2998L34.6646 38.5441C34.8764 38.1205 34.7933 37.609 34.4583 37.2741L31.8277 34.6435L32.5388 33.9323C32.7536 33.7176 32.7536 33.3694 32.5388 33.1546L30.7277 31.3436L30.8888 31.1824C31.0994 30.972 31.1043 30.6321 30.8998 30.4157L25.9498 25.1726C25.7413 24.9517 25.3932 24.9418 25.1724 25.1504C25.0624 25.2542 25.0001 25.3986 25 25.5498V32.6998C25 32.8618 25.0714 33.0155 25.1952 33.12L26.8452 34.5148C27.0636 34.6991 27.3868 34.6855 27.5888 34.4834L27.75 34.3206L29.5611 36.1318C29.7759 36.3465 30.1241 36.3465 30.3388 36.1318L31.05 35.4206L33.6806 38.0513L33.305 38.8048C32.7521 39.9113 33.2009 41.2564 34.3074 41.8092C34.8799 42.0953 35.5473 42.1227 36.1413 41.8848L37.8568 41.1989L37.4454 40.1798ZM27.3612 33.1557L27.1686 33.3482L26.1 32.4446V26.9336L29.7333 30.7836L29.5611 30.9557L27.3612 33.1557ZM29.95 34.9652L28.5277 33.5429L29.95 32.1206L31.3723 33.5446L29.95 34.9652Z" fill="#30ACB0"/>
<path d="M57.6606 40.9916C57.4551 40.9064 57.2184 40.9536 57.0611 41.1109L49.3611 48.811C49.1464 49.0257 49.1464 49.3739 49.3611 49.5887L49.7973 50.0248L47.6391 52.183C46.7854 51.6596 45.8013 51.3881 44.8 51.3998C42.3739 51.3998 40.4 52.8799 40.4 54.6998C40.4 56.5198 42.3739 57.9998 44.8 57.9998C47.226 57.9998 49.2 56.5198 49.2 54.6998C49.1891 54.031 48.9331 53.3895 48.4806 52.8969L50.575 50.8025L51.0111 51.2387C51.2259 51.4534 51.5741 51.4534 51.7888 51.2387L57.8388 45.1887C57.942 45.0855 58 44.9457 58 44.7998V41.4998C58.0001 41.2774 57.8661 41.0768 57.6606 40.9916ZM44.8 56.8998C43.0114 56.8998 41.5 55.8922 41.5 54.6998C41.5 53.5074 43.0114 52.4998 44.8 52.4998C46.5886 52.4998 48.1 53.5074 48.1 54.6998C48.1 55.8922 46.5886 56.8998 44.8 56.8998ZM56.9 44.5721L51.4 50.0721L50.5277 49.1998L56.9 42.8275V44.5721Z" fill="#30ACB0"/>
<path d="M43.9635 43.5865C43.7363 42.226 42.4492 41.3071 41.0887 41.5343C40.0366 41.71 39.2122 42.5344 39.0366 43.5865L37.375 53.5557C37.2505 54.3015 36.5451 54.8051 35.7993 54.6806C35.2081 54.5819 34.7498 54.1101 34.6685 53.5161L33.2451 43.0755C33.2349 42.9974 33.2081 42.9223 33.1664 42.8555L32.8606 42.366C31.9292 40.8769 31.2578 39.2402 30.8751 37.526L29.801 37.7658C30.2114 39.6027 30.9314 41.3563 31.93 42.9518L32.1731 43.3412L33.5811 53.6646C33.765 55.0154 35.0091 55.9614 36.3599 55.7775C37.432 55.6316 38.2841 54.8045 38.4618 53.7372L40.1234 43.768C40.2337 43.0937 40.8168 42.5989 41.5 42.5997C42.1841 42.5978 42.7684 43.0928 42.8789 43.768L43.9827 50.3905L45.0673 50.209L43.9635 43.5865Z" fill="#30ACB0"/>
<path d="M46.6611 27.1999C45.7215 27.1999 44.7918 27.3908 43.9282 27.7608C42.3769 28.4219 40.6231 28.4219 39.0717 27.7608C36.3466 26.5929 33.1805 27.2855 31.1919 29.4845L32.0081 30.2248C33.1155 29.0009 34.6883 28.3018 36.3388 28.2998C37.1294 28.2989 37.9119 28.4595 38.6383 28.7717C40.4664 29.5516 42.5336 29.5516 44.3616 28.7717C47.3257 27.5017 50.7581 28.875 52.0281 31.8391C52.3395 32.5657 52.5 33.348 52.5 34.1386C52.501 37.0491 51.6829 39.9012 50.1394 42.3688L49.8336 42.8583C49.7919 42.9251 49.7651 43.0002 49.7549 43.0783L49.305 46.3783L50.3946 46.5268L50.8291 43.344L51.0722 42.9546C52.7255 40.3114 53.6014 37.2563 53.6 34.1386C53.5999 30.3064 50.4933 27.1999 46.6611 27.1999Z" fill="#30ACB0"/>
</svg>
