<svg width="83" height="83" viewBox="0 0 83 83" fill="none" xmlns="http://www.w3.org/2000/svg">
<circle cx="41.5" cy="41.5" r="40.5" stroke="#30ACB0" stroke-width="2"/>
<g clip-path="url(#clip0)">
<path d="M31.1885 40.0578V43.0474V43.0484C31.1901 43.9002 31.8831 44.5932 32.7354 44.5932H38.9219V45.1089H38.4057C37.5529 45.1089 36.8589 45.8029 36.8589 46.6557C36.8589 47.5086 37.5529 48.2026 38.4057 48.2026H38.9219V48.7182H38.4057C37.5529 48.7182 36.8589 49.4123 36.8589 50.2651C36.8589 51.118 37.5529 51.812 38.4057 51.812H38.9219V52.3281H38.4057C37.5529 52.3281 36.8589 53.0222 36.8589 53.875C36.8589 54.7278 37.5529 55.4219 38.4057 55.4219H39.1915L41.0968 57.8061C41.1947 57.9283 41.3433 58 41.5 58C41.6567 58 41.8052 57.9283 41.9027 57.8061L43.8085 55.4219H44.5943C45.4471 55.4219 46.1411 54.7278 46.1411 53.875C46.1411 53.0222 45.4471 52.3281 44.5943 52.3281H44.0781V51.812H44.5943C45.4471 51.812 46.1411 51.118 46.1411 50.2651C46.1411 49.4123 45.4471 48.7182 44.5943 48.7182H44.0781V48.2026H44.5943C45.4471 48.2026 46.1411 47.5086 46.1411 46.6557C46.1411 45.8029 45.4471 45.1089 44.5943 45.1089H44.0781V44.5932H50.2646C51.1169 44.5932 51.8099 43.9002 51.8115 43.0484C51.8115 43.0479 51.8115 43.0479 51.8115 43.0474V40.0578C53.777 38.4341 54.9062 36.0663 54.9062 33.5078C54.9062 28.8167 51.0896 25 46.3984 25C44.6273 25 42.9422 25.5378 41.5 26.5598C40.0578 25.5378 38.3727 25 36.6016 25C31.9104 25 28.0938 28.8167 28.0938 33.5078C28.0938 36.0663 29.2235 38.4341 31.1885 40.0578ZM41.5 56.6583L40.5115 55.4219H42.4885L41.5 56.6583ZM44.5943 54.3906H38.4057C38.1211 54.3906 37.8901 54.1596 37.8901 53.875C37.8901 53.5904 38.1211 53.3594 38.4057 53.3594H44.5943C44.8789 53.3594 45.1099 53.5904 45.1099 53.875C45.1099 54.1596 44.8789 54.3906 44.5943 54.3906ZM43.0469 52.3281H39.9531V51.812H43.0469V52.3281ZM44.5943 50.7807H38.4057C38.1211 50.7807 37.8901 50.5497 37.8901 50.2651C37.8901 49.9805 38.1211 49.7495 38.4057 49.7495H39.4349C39.436 49.7495 39.4365 49.75 39.4375 49.75C39.4385 49.75 39.439 49.7495 39.4401 49.7495H43.5599C43.561 49.7495 43.5615 49.75 43.5625 49.75C43.5635 49.75 43.564 49.7495 43.5651 49.7495H44.5943C44.8789 49.7495 45.1099 49.9805 45.1099 50.2651C45.1099 50.5497 44.8789 50.7807 44.5943 50.7807ZM43.0469 48.7182H39.9531V48.2026H43.0469V48.7182ZM44.5943 47.1714H38.4057C38.1211 47.1714 37.8901 46.9404 37.8901 46.6557C37.8901 46.3711 38.1211 46.1401 38.4057 46.1401H39.4349C39.436 46.1401 39.4365 46.1406 39.4375 46.1406C39.4385 46.1406 39.439 46.1401 39.4401 46.1401H43.5599C43.561 46.1401 43.5615 46.1406 43.5625 46.1406C43.5635 46.1406 43.564 46.1401 43.5651 46.1401H44.5943C44.8789 46.1401 45.1099 46.3711 45.1099 46.6557C45.1099 46.9404 44.8789 47.1714 44.5943 47.1714ZM43.0469 45.1089H39.9531V44.5932H43.0469V45.1089ZM36.6016 26.0312C38.2722 26.0312 39.8567 26.5768 41.1834 27.6091C41.3695 27.754 41.6305 27.754 41.8171 27.6091C43.1438 26.5768 44.7278 26.0312 46.3984 26.0312C50.5209 26.0312 53.875 29.3854 53.875 33.5078C53.875 35.8343 52.8195 37.9881 50.9798 39.4169C50.971 39.4236 50.9674 39.4339 50.9591 39.4411C50.9318 39.4648 50.9112 39.4927 50.8895 39.521C50.8705 39.5468 50.8509 39.571 50.8364 39.5994C50.823 39.6278 50.8163 39.6572 50.807 39.6881C50.7972 39.7232 50.788 39.7572 50.7859 39.7933C50.7854 39.8041 50.7797 39.8134 50.7797 39.8242V43.0464C50.7797 43.331 50.5487 43.562 50.2641 43.562H32.7354C32.4508 43.562 32.2198 43.331 32.2198 43.0464V39.8242C32.2198 39.8129 32.2136 39.8031 32.2131 39.7917C32.211 39.7577 32.2023 39.7257 32.193 39.6922C32.1842 39.6597 32.177 39.6278 32.162 39.5979C32.1491 39.571 32.1295 39.5484 32.112 39.5241C32.0893 39.4932 32.0677 39.4643 32.0388 39.439C32.0305 39.4323 32.0275 39.4225 32.0192 39.4164C30.18 37.9881 29.125 35.8343 29.125 33.5078C29.125 29.3854 32.4791 26.0312 36.6016 26.0312Z" fill="#30ACB0"/>
<path d="M46.3984 28.6094C49.0993 28.6094 51.2969 30.807 51.2969 33.5078C51.2969 33.7924 51.5274 34.0234 51.8125 34.0234C52.0976 34.0234 52.3281 33.7924 52.3281 33.5078C52.3281 30.2382 49.668 27.5781 46.3984 27.5781C46.1133 27.5781 45.8828 27.8091 45.8828 28.0938C45.8828 28.3784 46.1133 28.6094 46.3984 28.6094Z" fill="#30ACB0"/>
</g>
<defs>
<clipPath id="clip0">
<rect width="33" height="33" fill="white" transform="translate(25 25)"/>
</clipPath>
</defs>
</svg>
