<svg width="83" height="83" viewBox="0 0 83 83" fill="none" xmlns="http://www.w3.org/2000/svg">
<circle cx="41.5" cy="41.5" r="40.5" stroke="#30ACB0" stroke-width="2"/>
<g clip-path="url(#clip0)">
<path d="M44.1841 33.0828C44.1841 33.0828 44.184 33.0829 44.184 33.0829C41.3393 34.5942 40.2539 38.1389 41.7646 40.9845C42.8134 42.9588 44.8411 44.0856 46.9351 44.0856C47.8586 44.0856 48.7951 43.8664 49.666 43.404C52.5108 41.8927 53.5962 38.3481 52.0855 35.5024C50.5742 32.6576 47.0298 31.5722 44.1841 33.0828ZM49.2126 42.5503C48.4856 42.9362 47.7043 43.1192 46.9335 43.1192C45.186 43.1191 43.4935 42.1787 42.6184 40.5312C41.3576 38.1563 42.2634 35.1981 44.6376 33.9368C47.0125 32.6761 49.9705 33.5819 51.2317 35.956C52.4924 38.3308 51.5866 41.2891 49.2126 42.5503Z" fill="#30ACB0"/>
<path d="M49.285 36.7557H48.411V35.8816C48.411 35.2959 47.9345 34.8194 47.3487 34.8194H46.5012C45.9155 34.8194 45.439 35.2959 45.439 35.8816V36.7557H44.565C43.9783 36.7557 43.5009 37.233 43.5009 37.8198V38.6654C43.5009 39.2521 43.9783 39.7294 44.565 39.7294H45.439V40.6035C45.439 41.1902 45.9155 41.6675 46.5012 41.6675H47.3487C47.9345 41.6675 48.411 41.1902 48.411 40.6035V39.7295H49.285C49.8717 39.7295 50.3491 39.2522 50.3491 38.6654V37.8198C50.349 37.233 49.8717 36.7557 49.285 36.7557ZM49.3823 38.6654C49.3823 38.7182 49.3377 38.7628 49.2849 38.7628H47.9276C47.6606 38.7628 47.4442 38.9792 47.4442 39.2462V40.6036C47.4442 40.6555 47.3996 40.7009 47.3487 40.7009H46.5012C46.4494 40.7009 46.4057 40.6564 46.4057 40.6036V39.2462C46.4057 38.9792 46.1893 38.7628 45.9223 38.7628H44.5649C44.5122 38.7628 44.4676 38.7182 44.4676 38.6654V37.8198C44.4676 37.767 44.5121 37.7225 44.5649 37.7225H45.9223C46.1893 37.7225 46.4057 37.5061 46.4057 37.2391V35.8816C46.4057 35.8299 46.4495 35.7861 46.5012 35.7861H47.3487C47.3996 35.7861 47.4442 35.8307 47.4442 35.8816V37.2391C47.4442 37.5061 47.6605 37.7225 47.9276 37.7225H49.2849C49.3377 37.7225 49.3823 37.767 49.3823 37.8198V38.6654Z" fill="#30ACB0"/>
<path d="M57.6509 52.0707L56.0527 49.0651C56.0519 49.0634 56.0512 49.0617 56.0504 49.06C56.0495 49.0584 56.0485 49.057 56.0476 49.0553L55.1749 47.4142C55.0527 47.1819 54.8467 47.0111 54.5948 46.9333C54.3421 46.8552 54.0748 46.88 53.8415 47.0037L53.4786 47.1966L52.0024 44.4166C52.9093 43.6734 53.6392 42.7393 54.149 41.6586C54.8638 40.1433 55.0877 38.4067 54.7793 36.7685C54.73 36.5061 54.4773 36.3336 54.2149 36.3829C53.9526 36.4323 53.7799 36.685 53.8293 36.9473C54.4007 39.9826 52.95 42.9964 50.2196 44.4466C49.0606 45.0623 47.7824 45.3359 46.5047 45.2569C46.4833 45.2534 46.4616 45.2509 46.4393 45.2505C46.4356 45.2504 46.4321 45.2504 46.4285 45.2504C46.4238 45.2504 46.4193 45.2509 46.4147 45.2511C45.8958 45.2122 45.3775 45.1152 44.8679 44.959C43.0739 44.4092 41.6015 43.1938 40.7218 41.5363C39.8417 39.8803 39.6597 37.9802 40.2094 36.1861C40.759 34.3923 41.9738 32.9199 43.6304 32.0403C45.2874 31.16 47.1882 30.9777 48.9821 31.5271C50.7761 32.0765 52.2485 33.2916 53.1278 34.9487C53.253 35.1844 53.5456 35.2741 53.7814 35.1491C54.0172 35.0239 54.1069 34.7313 53.9818 34.4954C52.9813 32.6102 51.3062 31.2277 49.2651 30.6027C49.2548 30.5996 49.2445 30.5968 49.2342 30.5936C48.6037 28.9043 47.3565 27.6752 45.6118 27.031C43.791 26.3586 41.539 26.3802 39.1008 27.0932C38.6409 27.2263 38.3005 27.3522 38.0271 27.4533C37.7107 27.5703 37.5017 27.6476 37.3443 27.6476C37.1883 27.6476 36.98 27.5705 36.6647 27.4538C36.391 27.3526 36.0503 27.2265 35.5909 27.0935C33.2362 26.4051 31.0467 26.3613 29.2591 26.9673C29.0062 27.0529 28.8707 27.3274 28.9564 27.5802C29.0421 27.8331 29.3165 27.9685 29.5693 27.8829C31.168 27.3411 33.1565 27.389 35.3209 28.0218C35.7479 28.1455 36.0703 28.2647 36.3293 28.3606C36.7275 28.5079 37.0152 28.6144 37.3444 28.6144C37.6748 28.6144 37.9633 28.5077 38.3625 28.3601C38.6213 28.2644 38.9435 28.1453 39.3709 28.0215C43.409 26.8408 46.709 27.7508 48.0612 30.3324C46.392 30.0892 44.6946 30.3803 43.1769 31.1865C41.2924 32.1872 39.9102 33.8622 39.2851 35.903C38.6597 37.9441 38.8668 40.1059 39.868 41.9897C40.8686 43.8751 42.5436 45.2579 44.5845 45.8833C45.0296 46.0197 45.4804 46.1152 45.9327 46.1729C45.8889 47.4823 45.7569 49.18 45.2752 50.4517C44.7491 51.8406 43.9346 52.4875 42.7122 52.4875C41.4377 52.4875 40.5921 51.86 40.0511 50.5127C39.5352 49.2276 39.3708 47.5053 39.212 45.8397C39.1713 45.4136 39.1293 44.9729 39.0822 44.5545C38.977 43.6228 38.7893 42.9397 38.5087 42.4661C38.1366 41.8381 37.6701 41.7063 37.3443 41.7063C37.019 41.7063 36.5533 41.8382 36.1814 42.4663C35.9009 42.94 35.7135 43.623 35.6082 44.5547C35.5612 44.973 35.5191 45.4137 35.4785 45.8398C35.3196 47.5054 35.1552 49.2277 34.6393 50.5128C34.0983 51.8601 33.2528 52.4876 31.9783 52.4876C30.562 52.4876 29.6734 51.6053 29.1816 49.711C28.7307 47.9741 28.7307 45.7519 28.7307 43.9663C28.7307 41.4541 27.9226 39.6398 27.2095 38.0391C26.7716 37.056 26.358 36.1275 26.1593 35.1241C25.6239 32.4096 26.2199 30.1755 27.8374 28.8334C28.0429 28.6629 28.0712 28.3582 27.9008 28.1527C27.7304 27.9473 27.4255 27.919 27.2201 28.0894C25.3173 29.6681 24.6037 32.2329 25.2109 35.3113C25.4307 36.4216 25.8659 37.3983 26.3264 38.4324C27.0332 40.019 27.764 41.6596 27.764 43.9662C27.764 45.8068 27.764 48.0974 28.2459 49.9538C28.8489 52.2765 30.1047 53.4542 31.9784 53.4542C33.6517 53.4542 34.8487 52.5857 35.5365 50.8729C36.1044 49.4583 36.2755 47.6654 36.4409 45.9315C36.483 45.4899 36.5228 45.0728 36.5689 44.6629C36.7467 43.0889 37.1538 42.6729 37.3443 42.6729C37.5495 42.6729 37.9441 43.0921 38.1215 44.6626C38.1677 45.0728 38.2075 45.4899 38.2496 45.9314C38.415 47.6653 38.5861 49.4583 39.154 50.8728C39.8417 52.5857 41.0389 53.4542 42.7122 53.4542C44.3442 53.4542 45.5106 52.5592 46.1793 50.794C46.7035 49.4099 46.8491 47.6882 46.898 46.2371C46.9106 46.2372 46.9231 46.2378 46.9357 46.2378C47.6989 46.2378 48.458 46.1263 49.1935 45.9069L50.6709 48.6891L50.3083 48.8819C50.3077 48.8822 50.3071 48.8826 50.3065 48.8829C49.8271 49.1405 49.646 49.7386 49.9015 50.2143L50.7758 51.8592C50.7767 51.8608 50.7772 51.8624 50.778 51.864C50.7786 51.865 50.7794 51.866 50.78 51.8671L52.3785 54.8744C52.7515 55.5765 53.378 56.0918 54.1426 56.3253C54.4326 56.4139 54.7288 56.4578 55.0231 56.4578C55.5045 56.4578 55.9808 56.3403 56.4165 56.1089C57.8699 55.3367 58.4237 53.5252 57.6509 52.0707ZM54.2946 47.8577C54.2988 47.8555 54.3038 47.8553 54.3094 47.857C54.3167 47.8592 54.3187 47.8629 54.3204 47.8662L54.9697 49.0874L51.405 50.9832L50.7542 49.7588C50.7535 49.7574 50.7518 49.7543 50.7538 49.7476C50.7564 49.7393 50.7614 49.736 50.7636 49.7349L54.2946 47.8577ZM50.11 45.5715C50.3 45.4886 50.488 45.3988 50.6731 45.3005C50.8573 45.2027 51.0365 45.098 51.2109 44.9876L52.6249 47.6505L51.5246 48.2354L50.11 45.5715ZM55.9629 55.2552C55.4886 55.5072 54.9425 55.5589 54.4251 55.4008C53.9076 55.2428 53.4839 54.8947 53.2322 54.4208L51.8586 51.8368L55.4235 49.9409L56.7972 52.5244C57.3198 53.508 56.9456 54.7331 55.9629 55.2552Z" fill="#30ACB0"/>
</g>
<defs>
<clipPath id="clip0">
<rect width="33" height="33" fill="white" transform="translate(25 25)"/>
</clipPath>
</defs>
</svg>
