<svg width="83" height="83" viewBox="0 0 83 83" fill="none" xmlns="http://www.w3.org/2000/svg">
<circle cx="41.5" cy="41.5" r="40.5" stroke="#30ACB0" stroke-width="2"/>
<g clip-path="url(#clip0)">
<path d="M34.0144 33.9322C34.2703 33.8561 34.4162 33.587 34.3402 33.3311C34.2642 33.0751 33.9951 32.9293 33.7391 33.0053C32.8643 33.2651 32.0863 33.738 31.489 34.3727C29.8263 36.1397 30.1222 38.5176 30.1985 38.9763C30.2378 39.2129 30.4427 39.3806 30.6748 39.3806C30.9693 39.3806 31.2009 39.1102 31.1523 38.8178C31.0892 38.438 30.8428 36.4704 32.1932 35.0353C32.8 34.3905 33.5185 34.0795 34.0144 33.9322ZM44.7536 31.4684C44.1323 32.0897 44.1248 33.1313 44.7535 33.7539L46.0083 35.0089C46.3844 35.3847 46.885 35.5918 47.4179 35.5918C47.9509 35.5918 48.4516 35.3847 48.8277 35.0087L52.3646 31.4717C53.0109 30.8308 52.9762 29.7399 52.3084 29.1325C51.6696 28.5514 50.6804 28.5848 50.0564 29.2088L47.4179 31.8473L47.0392 31.4686C46.4192 30.8423 45.3755 30.8466 44.7536 31.4684ZM47.4179 32.9206C47.6076 32.9206 47.7859 32.8468 47.9199 32.7127L50.7401 29.8925C50.994 29.6386 51.4056 29.6185 51.6576 29.8477C51.9275 30.0932 51.9411 30.5307 51.6808 30.788L48.144 34.3249C47.9505 34.5184 47.6927 34.6249 47.4179 34.6249C47.1432 34.6249 46.8853 34.5184 46.692 34.3251L45.4373 33.0703C45.1863 32.8218 45.1875 32.4019 45.4373 32.1522C45.6873 31.9024 46.1066 31.901 46.3554 32.1522L46.9159 32.7127C47.05 32.8468 47.2282 32.9206 47.4178 32.9206H47.4179ZM49.0158 25.0004C48.7488 24.9853 48.5196 25.186 48.5028 25.4524C48.486 25.7189 48.6883 25.9486 48.9547 25.9655C52.2091 26.1713 54.7584 28.8889 54.7584 32.1523C54.7584 35.6358 51.9092 38.3516 48.5591 38.3516C45.1408 38.3516 42.3598 35.5706 42.3598 32.1523C42.3598 29.4003 44.2083 26.9489 46.8549 26.1911C47.1116 26.1176 47.2601 25.85 47.1866 25.5933C47.1131 25.3367 46.8454 25.1878 46.5888 25.2616C43.86 26.0428 41.8668 28.3821 41.4676 31.1358C41.0571 31.4185 40.623 31.7374 40.214 31.9424C39.5461 32.277 38.9797 32.3072 38.3205 32.0438C37.8293 31.8471 37.4228 31.5558 36.9924 31.2475C36.2852 30.7408 35.5538 30.2169 34.4488 30.1358C33.1262 30.0396 31.635 30.4774 30.3578 31.3373C28.651 32.4864 27.5432 34.5794 27.3184 37.0794C27.2155 38.2201 27.295 39.3029 27.5545 40.2977C27.7386 41.0042 28.0585 41.659 28.3678 42.2921C28.6508 42.8714 28.9181 43.4187 29.088 43.9988C29.4259 45.1527 29.3831 46.2989 29.3377 47.5121C29.321 47.9594 29.3038 48.4219 29.3064 48.8885C29.3209 51.5536 29.339 54.8704 31.4643 56.7867C32.3119 57.5509 33.6623 58.351 34.7657 57.8322C35.5805 57.4492 35.7078 56.5936 35.8842 55.4095C35.9756 54.7957 36.0894 54.0317 36.318 53.1302C36.3705 52.9229 36.4233 52.6965 36.4792 52.457C36.556 52.128 36.6722 51.6588 36.197 51.5469C35.7316 51.4373 35.6177 51.8937 35.5375 52.2373C35.4827 52.4723 35.4309 52.6943 35.3806 52.8926C35.1401 53.8412 35.0224 54.6319 34.9278 55.2672C34.77 56.3264 34.6863 56.8012 34.3545 56.9572C33.8172 57.2095 32.798 56.688 32.1119 56.0688C30.3035 54.4383 30.2868 51.3582 30.2733 48.8831C30.2708 48.4374 30.2877 47.9854 30.304 47.5484C30.3502 46.3112 30.3981 45.032 30.016 43.7272C29.8229 43.0682 29.5249 42.458 29.2366 41.8678C28.9349 41.2502 28.6499 40.6669 28.4901 40.0538C28.2589 39.1671 28.1886 38.1957 28.2815 37.1663C28.4801 34.9574 29.4337 33.1252 30.8979 32.1395C31.999 31.3982 33.2674 31.0195 34.3784 31.1003C35.2119 31.1614 35.7761 31.5656 36.4294 32.0336C36.8876 32.3619 37.3614 32.7013 37.9615 32.9416C38.8786 33.3082 39.732 33.2654 40.6473 32.8069C40.907 32.6766 41.1554 32.522 41.3962 32.3604C41.5068 36.216 44.6774 39.3185 48.5592 39.3185C49.09 39.3185 49.6072 39.26 50.1055 39.15C49.9638 40.0935 49.6725 40.9805 49.2493 41.7464C48.1135 43.8032 48.1371 45.7184 48.1621 47.746C48.1666 48.1149 48.1713 48.4963 48.1692 48.8856C48.1551 51.3597 48.1376 54.4389 46.3299 56.0689C45.6439 56.688 44.6247 57.2096 44.0876 56.9572C43.7556 56.8011 43.6719 56.3263 43.5141 55.2671C43.4196 54.6318 43.3018 53.8412 43.0614 52.8927C42.655 51.2897 41.9934 48.1942 40.2619 47.2849C39.6836 46.9813 39.055 46.9551 38.3934 47.2065C37.4919 47.549 36.7978 48.3608 36.2714 49.6882C36.1731 49.9365 36.2944 50.2175 36.5427 50.3158C36.7909 50.4145 37.0719 50.2929 37.1703 50.0446C37.591 48.9838 38.1034 48.3511 38.737 48.1104C39.134 47.9594 39.4857 47.9694 39.8125 48.141C41.1218 48.8286 41.7772 51.7616 42.1241 53.1301C42.3527 54.0316 42.4664 54.7956 42.5578 55.4094C42.7342 56.5936 42.8616 57.4492 43.6764 57.8322C44.7941 58.3577 46.137 57.5448 46.9776 56.7868C49.1021 54.8711 49.121 51.5553 49.1362 48.8884C49.1383 48.4929 49.1336 48.1071 49.129 47.7341C49.1046 45.7556 49.0835 44.0468 50.0957 42.2138C50.6411 41.2268 50.9917 40.0682 51.118 38.8458C53.8095 37.8135 55.7255 35.2026 55.7255 32.1522C55.7253 28.3799 52.7781 25.2385 49.0158 25.0004ZM30.9577 40.2493C30.6915 40.27 30.4924 40.5026 30.5131 40.7688C30.5349 41.0483 30.5795 41.3278 30.6456 41.5997C30.6994 41.8208 30.8971 41.969 31.1149 41.969C31.4216 41.969 31.6582 41.6716 31.5851 41.3711C31.5312 41.1495 31.4949 40.9217 31.4772 40.6939C31.4564 40.4276 31.2233 40.2279 30.9577 40.2493Z" fill="#30ACB0"/>
</g>
<defs>
<clipPath id="clip0">
<rect width="33" height="33" fill="white" transform="translate(25 25)"/>
</clipPath>
</defs>
</svg>
