<svg width="83" height="83" viewBox="0 0 83 83" fill="none" xmlns="http://www.w3.org/2000/svg">
<circle cx="41.5" cy="41.5" r="40.5" stroke="#30ACB0" stroke-width="2"/>
<path d="M51.0806 38.3065V29.8994C51.0806 27.1977 48.8829 25 46.1812 25C45.023 25 43.9409 25.3779 43.133 26.0645C42.7173 26.4179 42.168 26.5968 41.5 26.5968C40.832 26.5968 40.2827 26.4179 39.867 26.0645C39.0591 25.3779 37.977 25 36.8188 25C34.117 25 31.9193 27.1977 31.9193 29.8994V38.3065C31.9193 38.9803 32.3255 39.9469 34.2038 40.7788C34.1053 41.1311 34.0484 41.5011 34.0484 41.8843V43.0968H32.2893L35.8352 56.2686C36.1103 57.2878 37.0391 58 38.0957 58C39.3853 58 40.4355 56.9499 40.4355 55.6597V50.5484C40.4355 49.9613 40.9129 49.4839 41.5 49.4839C42.0871 49.4839 42.5645 49.9613 42.5645 50.5484V55.6597C42.5645 56.9499 43.6147 58 44.9043 58C45.9603 58 46.8891 57.2878 47.1643 56.268L50.7107 43.0968H48.9516V41.8843C48.9516 41.5011 48.8947 41.1311 48.7962 40.7793C50.6745 39.9469 51.0806 38.9803 51.0806 38.3065ZM49.3215 44.1613L46.1365 55.9913C45.9869 56.5475 45.4807 56.9355 44.9043 56.9355C44.2012 56.9355 43.629 56.3633 43.629 55.6597V50.5484C43.629 49.3742 42.6742 48.4194 41.5 48.4194C40.3258 48.4194 39.371 49.3742 39.371 50.5484V55.6597C39.371 56.3633 38.7988 56.9355 38.0957 56.9355C37.5198 56.9355 37.0136 56.5475 36.864 55.9918L33.6785 44.1613H45.7581V43.0968H35.1129V41.8843C35.1129 40.205 36.4787 38.8387 38.1585 38.8387C38.7503 38.8387 39.3113 39.001 39.7803 39.3071C40.9885 40.098 42.0126 40.098 43.2197 39.3071C43.6892 39.0005 44.2502 38.8387 44.842 38.8387C46.5213 38.8387 47.8871 40.205 47.8871 41.8843V43.0968H46.8226V44.1613H49.3215ZM48.3773 39.7994C47.6614 38.5896 46.3467 37.7742 44.8415 37.7742C44.0421 37.7742 43.2799 37.9961 42.6364 38.4166C42.2153 38.6929 41.8215 38.8387 41.5 38.8387C41.1785 38.8387 40.7846 38.6929 40.3626 38.4166C39.7196 37.9961 38.9579 37.7742 38.1585 37.7742C36.6538 37.7742 35.3391 38.5896 34.6227 39.7994C33.596 39.3406 32.9839 38.7897 32.9839 38.3065C32.9839 37.3101 35.3902 36.0747 39.4162 35.7325L39.4662 35.7287L41.5 38.0504L43.5316 35.7287L43.5838 35.7325C47.6098 36.0747 50.0161 37.3101 50.0161 38.3065C50.0161 38.7897 49.404 39.3406 48.3773 39.7994ZM50.0161 36.5154C48.7446 35.5653 46.5213 34.9947 44.3923 34.7451L46.3989 32.4516H43.0968V29.2581H42.0322V33.5161H44.0527L41.5 36.4334L38.9473 33.5161H40.9677V29.2581H39.9032V32.4516H36.6011L38.6077 34.7451C36.4787 34.9953 34.2554 35.5653 32.9839 36.5154V29.8994C32.9839 27.7848 34.7041 26.0645 36.8188 26.0645C37.7241 26.0645 38.5619 26.3525 39.1777 26.8751C39.7909 27.3968 40.5723 27.6613 41.5 27.6613C42.4277 27.6613 43.2091 27.3968 43.8222 26.8757C44.4381 26.3525 45.2758 26.0645 46.1812 26.0645C48.2959 26.0645 50.0161 27.7848 50.0161 29.8994V36.5154Z" fill="#30ACB0"/>
<path d="M34.0484 29.8994H35.1129C35.1129 28.9589 35.8783 28.1935 36.8188 28.1935V27.129C35.2912 27.129 34.0484 28.3719 34.0484 29.8994Z" fill="#30ACB0"/>
<path d="M46.1812 27.129V28.1935C47.1217 28.1935 47.8871 28.9589 47.8871 29.8994H48.9516C48.9516 28.3719 47.7088 27.129 46.1812 27.129Z" fill="#30ACB0"/>
</svg>
