<svg width="83" height="83" viewBox="0 0 83 83" fill="none" xmlns="http://www.w3.org/2000/svg">
<circle cx="41.5" cy="41.5" r="40.5" stroke="#30ACB0" stroke-width="2"/>
<path d="M53.116 36.8012C52.792 36.7844 52.5308 37.0154 52.5087 37.3286C51.8851 46.1763 49.2465 56.862 46.9234 56.8651C46.3713 56.6338 45.8333 53.5802 45.4776 51.5595C44.7249 47.286 43.9463 42.8672 41.4977 42.8586C39.4468 42.8671 38.6481 46.8624 37.8017 51.0924C37.3861 53.1694 36.6905 56.6458 36.0948 56.862C34.3179 56.862 31.1707 48.4857 30.464 36.914C30.4453 36.6005 30.1778 36.3607 29.8618 36.3809C29.5478 36.4 29.3091 36.6697 29.3284 36.9834C29.5233 40.1801 30.2112 45.3765 31.307 49.7794C32.6833 55.3109 34.2497 57.9999 36.0948 57.9999C37.5112 57.9999 38.0634 55.5846 38.9174 51.3156C39.4648 48.5798 40.3802 44.0013 41.4977 43.9965C42.9906 44.0016 43.8131 48.6685 44.357 51.7566C45.0192 55.5164 45.4566 57.9999 46.9051 57.9999C51.2958 57.9999 53.3369 41.7579 53.6433 37.4088C53.6656 37.0954 53.4295 36.8234 53.116 36.8012Z" fill="#30ACB0"/>
<path d="M46.9052 25C45.8762 25 44.9016 25.4617 43.9594 25.908C43.092 26.3191 42.273 26.7069 41.5 26.7069C40.7271 26.7069 39.9081 26.3192 39.0407 25.908C38.0984 25.4617 37.1238 25 36.0948 25C32.271 25 29.4673 28.9697 29.2771 34.6534C29.2666 34.9674 29.5127 35.2306 29.8268 35.2411C29.8328 35.2414 29.8396 35.2414 29.8461 35.2414C30.1511 35.2414 30.404 34.999 30.414 34.6915C30.5801 29.7352 32.9695 26.1379 36.0948 26.1379C36.8677 26.1379 37.6868 26.5256 38.5541 26.9368C39.4963 27.3832 40.471 27.8448 41.4999 27.8448C42.5289 27.8448 43.5035 27.3831 44.4458 26.9368C45.3131 26.5257 46.1321 26.1379 46.9051 26.1379C50.0071 26.1379 52.3392 29.5574 52.5759 34.4533C52.5916 34.7671 52.8661 35.0007 53.1722 34.9942C53.4854 34.9788 53.7277 34.7122 53.7127 34.3982C53.4448 28.8647 50.6455 25 46.9052 25Z" fill="#30ACB0"/>
<path d="M48.0431 31.2775H34.9569C34.6528 31.2775 34.4067 31.5241 34.4067 31.8276V39.7931C34.4067 40.0969 34.6531 40.3433 34.9569 40.3433H48.0431C48.3469 40.3433 48.5932 40.0966 48.5932 39.7931V31.8276C48.5932 31.5238 48.3469 31.2775 48.0431 31.2775ZM47.4932 39.2429H35.5071V32.3778H47.4932V39.2429Z" fill="#30ACB0"/>
<path d="M34.9569 34.1222H25.8534C25.5493 34.1222 25.3033 34.3688 25.3033 34.6724V36.9482C25.3033 37.252 25.5497 37.4984 25.8534 37.4984H34.9569C35.2607 37.4984 35.5071 37.2518 35.5071 36.9482V34.6724C35.5071 34.3686 35.2607 34.1222 34.9569 34.1222ZM34.407 36.3981H26.4036V35.2223H34.4069V36.3981H34.407Z" fill="#30ACB0"/>
<path d="M57.1465 34.1222H48.0431C47.739 34.1222 47.4929 34.3688 47.4929 34.6724V36.9482C47.4929 37.252 47.7393 37.4984 48.0431 37.4984H57.1465C57.4503 37.4984 57.6967 37.2518 57.6967 36.9482V34.6724C57.6967 34.3686 57.4503 34.1222 57.1465 34.1222ZM56.5966 36.3981H48.5933V35.2223H56.5966V36.3981Z" fill="#30ACB0"/>
<path d="M39.5086 32.9655H37.8017C37.4873 32.9655 37.2327 33.2203 37.2327 33.5344V38.0861C37.2327 38.4002 37.4873 38.6551 37.8017 38.6551H39.5086C39.823 38.6551 40.0776 38.4003 40.0776 38.0861V33.5344C40.0776 33.2204 39.823 32.9655 39.5086 32.9655ZM38.9396 37.5172H38.3706V34.1034H38.9396V37.5172Z" fill="#30ACB0"/>
<path d="M44.6293 32.9655H42.9224C42.608 32.9655 42.3534 33.2203 42.3534 33.5344V38.0861C42.3534 38.4002 42.608 38.6551 42.9224 38.6551H44.6293C44.9436 38.6551 45.1983 38.4003 45.1983 38.0861V33.5344C45.1983 33.2204 44.9436 32.9655 44.6293 32.9655ZM44.0603 37.5172H43.4913V34.1034H44.0603V37.5172Z" fill="#30ACB0"/>
<path d="M48.0431 35.2413H44.6293C44.3149 35.2413 44.0603 35.4962 44.0603 35.8103C44.0603 36.1245 44.3149 36.3793 44.6293 36.3793H48.0431C48.3575 36.3793 48.6121 36.1245 48.6121 35.8103C48.6121 35.4962 48.3575 35.2413 48.0431 35.2413Z" fill="#30ACB0"/>
<path d="M42.9224 35.2413H39.5086C39.1943 35.2413 38.9396 35.4962 38.9396 35.8103C38.9396 36.1245 39.1943 36.3793 39.5086 36.3793H42.9224C43.2368 36.3793 43.4914 36.1245 43.4914 35.8103C43.4914 35.4962 43.2368 35.2413 42.9224 35.2413Z" fill="#30ACB0"/>
<path d="M37.2327 35.2413H34.9568C34.6425 35.2413 34.3878 35.4962 34.3878 35.8103C34.3878 36.1245 34.6425 36.3793 34.9568 36.3793H37.2327C37.5471 36.3793 37.8017 36.1245 37.8017 35.8103C37.8017 35.4962 37.5471 35.2413 37.2327 35.2413Z" fill="#30ACB0"/>
</svg>
